<?xml version="1.0" encoding="UTF-8"?>
<svg version="1.1" xmlns="http://www.w3.org/2000/svg" width="121" height="129">
<path d="M0 0 C4.44822884 3.66324728 5.56361297 6.69219408 6.328125 12.38671875 C6.5034375 13.68673828 6.67875 14.98675781 6.859375 16.32617188 C6.94380859 17.00220459 7.02824219 17.6782373 7.11523438 18.37475586 C7.37228181 20.41591545 7.65336361 22.45269038 7.9375 24.49023438 C10.06192695 40.8016489 10.06192695 40.8016489 6.5 48.0625 C0.46218608 54.89476311 -8.61008917 57.3869027 -17.5 58 C-19.875 57.75 -19.875 57.75 -20.875 56.75 C-20.95128541 55.02722117 -21.02227403 53.3040232 -21.06469727 51.58007812 C-21.30398672 43.07803651 -22.94332897 36.41022991 -26.875 28.75 C-30.01762826 29.34047295 -30.73517261 29.58898664 -32.9375 32.125 C-37.01999404 38.81128946 -38.15096405 47.0752189 -38.875 54.75 C-43.55390491 54.46643001 -45.79815248 52.32612486 -49.03125 49.22265625 C-52.89636007 46.13548147 -56.84970828 45.47471988 -61.6875 45.125 C-62.66332031 45.05023438 -63.63914063 44.97546875 -64.64453125 44.8984375 C-65.38058594 44.84945312 -66.11664063 44.80046875 -66.875 44.75 C-65.99374867 51.70778663 -63.29681145 58.69057999 -57.95703125 63.46484375 C-56.28773435 64.59721216 -54.58363735 65.67791382 -52.875 66.75 C-52.545 67.74 -52.215 68.73 -51.875 69.75 C-52.82375 70.141875 -53.7725 70.53375 -54.75 70.9375 C-65.93967764 75.71410579 -65.93967764 75.71410579 -74.875 83.75 C-74.875 84.74 -74.875 85.73 -74.875 86.75 C-66.93282419 89.80375453 -58.40858406 89.33452059 -50.0625 88.1875 C-49.010625 88.043125 -47.95875 87.89875 -46.875 87.75 C-44.69657167 89.92842833 -45.64304969 94.79594541 -45.625 97.8125 C-45.604375 98.64716797 -45.58375 99.48183594 -45.5625 100.34179688 C-45.52461815 106.41709848 -45.97587618 112.68593903 -50.37695312 117.33740234 C-56.86608937 122.69154887 -66.84992675 122.31811629 -74.875 122.75 C-75.76058594 122.8005957 -76.64617187 122.85119141 -77.55859375 122.90332031 C-80.24769862 123.03738974 -82.93339986 123.12257323 -85.625 123.1875 C-86.45805664 123.22206299 -87.29111328 123.25662598 -88.14941406 123.29223633 C-92.37054664 123.32103632 -95.0456799 123.05324353 -98.390625 120.34765625 C-103.20287606 115.31597865 -102.06106035 109.65004105 -102.06030273 103.06860352 C-102.0624524 100.98366721 -102.08050062 98.89929309 -102.09960938 96.81445312 C-102.1974145 74.23510371 -102.1974145 74.23510371 -97.6875 68 C-94.3489387 65.32915096 -92.10116308 64.91573189 -87.875 64.75 C-90.53072877 61.99791826 -93.25518089 59.60681399 -96.3125 57.3125 C-103.54953934 51.70617512 -106.7415602 48.12559888 -108.375 38.9375 C-106.54173503 27.25043578 -94.18199611 15.65939629 -85.875 7.75 C-81.16037152 5.39268576 -74.97521799 6.16647671 -69.875 6.75 C-66.58947203 8.21255617 -64.36589069 10.1866673 -61.875 12.75 C-60.90240234 13.70132812 -60.90240234 13.70132812 -59.91015625 14.671875 C-58.69557252 15.87403968 -57.49682799 17.09258587 -56.3203125 18.33203125 C-54.91080251 19.86007959 -54.91080251 19.86007959 -52.875 20.75 C-52.78863281 20.14671875 -52.70226563 19.5434375 -52.61328125 18.921875 C-52.47277344 18.12265625 -52.33226562 17.3234375 -52.1875 16.5 C-51.99607422 15.31664062 -51.99607422 15.31664062 -51.80078125 14.109375 C-50.50404775 10.80461959 -48.8398083 9.67268223 -45.875 7.75 C-43.45611934 6.78132137 -41.17469892 5.97236801 -38.6875 5.25 C-37.99841553 5.0435083 -37.30933105 4.8370166 -36.59936523 4.62426758 C-31.25308108 3.06276178 -25.86270509 1.69538647 -20.4375 0.4375 C-19.71731689 0.26605469 -18.99713379 0.09460938 -18.25512695 -0.08203125 C-12.23534464 -1.40916204 -5.78235325 -2.51406663 0 0 Z " fill="#03C9FB" transform="translate(110.875,3.25)"/>
<path d="M0 0 C0.33 0.66 0.66 1.32 1 2 C1.78375 1.835 2.5675 1.67 3.375 1.5 C12.52798715 0.23751901 18.22231181 0.75125337 26 6 C26.99 6.66 27.98 7.32 29 8 C28.37351563 8.47050781 27.74703125 8.94101563 27.1015625 9.42578125 C26.28429688 10.04839844 25.46703125 10.67101562 24.625 11.3125 C23.81289063 11.92738281 23.00078125 12.54226562 22.1640625 13.17578125 C18.6969282 16.09843778 17.7059847 18.64642769 17 23 C23.54063483 24.91547163 29.70510371 25.41098752 36.5 25.625 C37.51320312 25.66367188 38.52640625 25.70234375 39.5703125 25.7421875 C42.04670284 25.83563619 44.52310151 25.92139873 47 26 C47 26.99 47 27.98 47 29 C46.34 29 45.68 29 45 29 C45.05220703 30.28583984 45.05220703 30.28583984 45.10546875 31.59765625 C45.26218361 38.21699334 45.253889 43.17011554 42 49 C41.34 49 40.68 49 40 49 C39.67 49.99 39.34 50.98 39 52 C37.68 52 36.36 52 35 52 C34.67 52.99 34.34 53.98 34 55 C26.20488173 55.79658143 18.39428768 56.19693955 10.5625 56.375 C9.71075195 56.41302734 8.85900391 56.45105469 7.98144531 56.49023438 C3.67750681 56.54791428 0.88132538 56.37014333 -2.53515625 53.6015625 C-7.31693644 48.55454886 -6.1860598 42.89522915 -6.18530273 36.31860352 C-6.1874524 34.23366721 -6.20550062 32.14929309 -6.22460938 30.06445312 C-6.32935154 7.03663145 -6.32935154 7.03663145 0 0 Z " fill="#04C9FB" transform="translate(15,70)"/>
<path d="M0 0 C0.78140904 2.58257197 1.29369887 4.85680922 1.6875 7.5 C1.80778564 8.22977051 1.92807129 8.95954102 2.05200195 9.71142578 C2.38872601 11.80510215 2.69877402 13.90096405 3 16 C3.20109375 17.31097656 3.20109375 17.31097656 3.40625 18.6484375 C4.46438231 27.02531831 4.08261108 35.57367014 4 44 C3.34 44 2.68 44 2 44 C1.34 45.65 0.68 47.3 0 49 C-2.64 49 -5.28 49 -8 49 C-8 49.99 -8 50.98 -8 52 C-11.21451269 53.60725635 -14.43612536 53.05748185 -18 53 C-18.09796875 52.12859375 -18.1959375 51.2571875 -18.296875 50.359375 C-19.62977269 36.66925944 -19.62977269 36.66925944 -26 25 C-31.27117357 24.43843945 -31.27117357 24.43843945 -36 26.25 C-37.33075929 28.24290136 -37.33075929 28.24290136 -37 32 C-41.49652778 32.36458333 -41.49652778 32.36458333 -43.8125 30.6875 C-45 29 -45 29 -45 26 C-45.66 26 -46.32 26 -47 26 C-48.625 24.9375 -48.625 24.9375 -50 23 C-50.375 19.875 -50.375 19.875 -50 16 C-49.96132813 15.2471875 -49.92265625 14.494375 -49.8828125 13.71875 C-49.40986872 10.82317584 -48.84534904 9.30560081 -47 7 C-41.88085661 4.47557848 -36.54065794 3.26987894 -31 2 C-29.41884919 1.60585428 -27.83812019 1.21001266 -26.2578125 0.8125 C-24.69360199 0.43378963 -23.12851062 0.05869642 -21.5625 -0.3125 C-20.84247803 -0.48434814 -20.12245605 -0.65619629 -19.38061523 -0.83325195 C-13.084899 -2.21728325 -5.67881259 -3.76918475 0 0 Z " fill="#03CDFC" transform="translate(112,4)"/>
<path d="M0 0 C3.28552797 1.46255617 5.50910931 3.4366673 8 6 C8.97259766 6.95132812 8.97259766 6.95132812 9.96484375 7.921875 C11.17942748 9.12403968 12.37817201 10.34258587 13.5546875 11.58203125 C14.96419749 13.11007959 14.96419749 13.11007959 17 14 C17.10957031 13.38511719 17.21914063 12.77023438 17.33203125 12.13671875 C17.56986328 10.92435547 17.56986328 10.92435547 17.8125 9.6875 C17.96332031 8.88699219 18.11414062 8.08648437 18.26953125 7.26171875 C19.07572236 4.76554413 20.02052002 3.67577894 22 2 C22.66 2.33 23.32 2.66 24 3 C22.45730076 7.72065967 20.92205381 12.41664092 19 17 C15.73928575 16.30235881 12.88900881 15.17153251 9.875 13.75 C9.00617187 13.35296875 8.13734375 12.9559375 7.2421875 12.546875 C4.50130652 10.65595362 4.05452053 9.09326024 3 6 C1.06616713 4.69934079 1.06616713 4.69934079 -1 4 C-1.66 3.67 -2.32 3.34 -3 3 C-8.51360004 2.63845246 -11.37795222 2.73737804 -16 6 C-16.66 6 -17.32 6 -18 6 C-18.04125 6.845625 -18.0825 7.69125 -18.125 8.5625 C-19.27917414 13.09675554 -21.6674029 15.79115982 -25 19 C-25.66 19.33 -26.32 19.66 -27 20 C-28.04808041 21.97522846 -29.0520411 23.97481509 -30 26 C-30.66 26 -31.32 26 -32 26 C-32 26.99 -32 27.98 -32 29 C-32.66 29 -33.32 29 -34 29 C-33.52408068 35.98535322 -33.52408068 35.98535322 -30.30859375 41.9609375 C-28.41692719 43.50995093 -28.41692719 43.50995093 -26.4609375 44.78125 C-25.97882812 45.1834375 -25.49671875 45.585625 -25 46 C-25 46.99 -25 47.98 -25 49 C-23.906875 49.268125 -22.81375 49.53625 -21.6875 49.8125 C-16.64885496 51.4351145 -16.64885496 51.4351145 -15 54 C-14.3125 57.1875 -14.3125 57.1875 -14 60 C-17.63 60 -21.26 60 -25 60 C-23 58 -23 58 -20.375 57.875 C-19.59125 57.91625 -18.8075 57.9575 -18 58 C-20.65572877 55.24791826 -23.38018089 52.85681399 -26.4375 50.5625 C-33.67453934 44.95617512 -36.8665602 41.37559888 -38.5 32.1875 C-36.66673503 20.50043578 -24.30699611 8.90939629 -16 1 C-11.28537152 -1.35731424 -5.10021799 -0.58352329 0 0 Z " fill="#4ACEE9" transform="translate(41,10)"/>
<path d="M0 0 C3.91791854 3.23693156 4.65422161 5.65592839 5.30078125 10.63671875 C5.47287109 11.93673828 5.64496094 13.23675781 5.82226562 14.57617188 C5.90259033 15.25220459 5.98291504 15.9282373 6.06567383 16.62475586 C6.30999194 18.66653994 6.58337123 20.70278811 6.86132812 22.74023438 C8.93096616 39.06379975 8.93096616 39.06379975 5.375 46.3125 C-0.66281392 53.14476311 -9.73508917 55.6369027 -18.625 56.25 C-21 56 -21 56 -22 55 C-22.07628541 53.27722117 -22.14727403 51.5540232 -22.18969727 49.83007812 C-22.42898672 41.32803651 -24.06832897 34.66022991 -28 27 C-31.48043031 27.59706127 -31.87283128 27.82794821 -34.125 30.875 C-34.74375 31.90625 -35.3625 32.9375 -36 34 C-36.66 34.99 -37.32 35.98 -38 37 C-38.10815225 35.23050905 -38.18566083 33.45912513 -38.25 31.6875 C-38.31960937 30.20830078 -38.31960937 30.20830078 -38.390625 28.69921875 C-38 26 -38 26 -36.23828125 24.16796875 C-32.57278102 22.25525571 -30.11002092 22.60856944 -26 23 C-22.34363752 25.84784213 -21.53206697 29.83229038 -20.3125 34.125 C-20.09118408 34.88675537 -19.86986816 35.64851074 -19.6418457 36.43334961 C-18.16313804 41.77252626 -17.49488648 46.44375132 -18 52 C-13.05 51.505 -13.05 51.505 -8 51 C-8 50.01 -8 49.02 -8 48 C-4.71023192 46.90341064 -3.28696233 47.20046862 0 48 C0.66 46.35 1.32 44.7 2 43 C2.66 43 3.32 43 4 43 C3.71921922 38.54091233 3.4233837 34.0829416 3.125 29.625 C3.04636719 28.37332031 2.96773437 27.12164062 2.88671875 25.83203125 C2.45449413 19.48165416 1.87168239 13.36104409 0.39794922 7.16162109 C-0.04839882 4.73710235 -0.06423769 2.4599255 0 0 Z " fill="#78E0F0" transform="translate(112,5)"/>
<path d="M0 0 C0.99 0.33 1.98 0.66 3 1 C2.45730469 1.39832031 1.91460937 1.79664062 1.35546875 2.20703125 C0.28232422 3.00173828 0.28232422 3.00173828 -0.8125 3.8125 C-1.87404297 4.59560547 -1.87404297 4.59560547 -2.95703125 5.39453125 C-4.81235632 6.85254005 -6.49070534 8.18598969 -8 10 C-8 10.99 -8 11.98 -8 13 C-0.05782419 16.05375453 8.46641594 15.58452059 16.8125 14.4375 C18.3903125 14.2209375 18.3903125 14.2209375 20 14 C22.17842833 16.17842833 21.23195031 21.04594541 21.25 24.0625 C21.270625 24.89716797 21.29125 25.73183594 21.3125 26.59179688 C21.34883053 32.41830581 20.55598229 36.73225319 18 42 C16.09765625 43.875 16.09765625 43.875 14.0625 45 C13.39347656 45.391875 12.72445312 45.78375 12.03515625 46.1875 C10 47 10 47 6 47 C6 46.34 6 45.68 6 45 C6.8971875 44.8453125 6.8971875 44.8453125 7.8125 44.6875 C10.42573762 43.86619675 11.34672947 43.17931115 13 41 C14.69029538 36.66704133 15.3414663 32.75605036 15.625 28.125 C15.69976562 26.97257812 15.77453125 25.82015625 15.8515625 24.6328125 C15.90054688 23.76398438 15.94953125 22.89515625 16 22 C16.66 22 17.32 22 18 22 C18 21.01 18 20.02 18 19 C17.36497559 19.01047363 16.72995117 19.02094727 16.07568359 19.03173828 C13.1754966 19.07352467 10.27537318 19.09939771 7.375 19.125 C6.37597656 19.14175781 5.37695312 19.15851563 4.34765625 19.17578125 C-1.73118372 19.21603847 -6.48546705 18.75726647 -12 16 C-12.08642612 11.85154638 -11.83733028 9.92564245 -9 6.7890625 C-3.09762397 1.54881198 -3.09762397 1.54881198 0 0 Z " fill="#1ACBF1" transform="translate(44,77)"/>
<path d="M0 0 C6.81598387 -0.33278764 11.92122066 -0.24201565 18 3 C15.08365128 4.45817436 13.05031835 3.2966711 10.04296875 2.48046875 C7.65174453 1.91809671 5.4472448 1.8470472 3 2 C3.88125133 8.95778663 6.57818855 15.94057999 11.91796875 20.71484375 C13.58726565 21.84721216 15.29136265 22.92791382 17 24 C17.33 24.99 17.66 25.98 18 27 C13.9811485 28.81242323 10.38889325 30.33501617 6 31 C6.66 30.01 7.32 29.02 8 28 C7.67 27.34 7.34 26.68 7 26 C7.99 26 8.98 26 10 26 C8.9893322 22.96799661 8.36506843 22.00121175 6 20 C5.01 19.67 4.02 19.34 3 19 C2.49521515 16.58424393 1.99602358 14.16755639 1.5 11.75 C1.35691406 11.06808594 1.21382812 10.38617188 1.06640625 9.68359375 C0.38748951 6.35366879 0 3.41667449 0 0 Z " fill="#3BC7E1" transform="translate(41,46)"/>
<path d="M0 0 C0.804375 0.474375 1.60875 0.94875 2.4375 1.4375 C6.66939929 3.29359618 10.43172078 3.70559978 15 4 C15.33 4.99 15.66 5.98 16 7 C17.98 7 19.96 7 22 7 C22 7.66 22 8.32 22 9 C22.66 9.33 23.32 9.66 24 10 C22.3643875 11.99908195 21.57252743 12.94002094 18.94921875 13.21484375 C18.20285156 13.12332031 17.45648438 13.03179687 16.6875 12.9375 C15.94886719 12.86402344 15.21023437 12.79054688 14.44921875 12.71484375 C12 12 12 12 9.23046875 9.95703125 C5.1191533 7.46637945 2.30753678 7.52984456 -2.375 7.75 C-3.47908203 7.77707031 -3.47908203 7.77707031 -4.60546875 7.8046875 C-6.40421736 7.85140824 -8.20228711 7.92313817 -10 8 C-10 7.34 -10 6.68 -10 6 C-6.37 6 -2.74 6 1 6 C0.67 4.02 0.34 2.04 0 0 Z " fill="#07B4E1" transform="translate(26,64)"/>
<path d="M0 0 C0 3 0 3 -1.47729492 6.16357422 C-3.31002434 10.2789479 -3.4190537 13.92790764 -3.36328125 18.3828125 C-3.36377975 19.16010712 -3.36427826 19.93740173 -3.36479187 20.73825073 C-3.36246528 22.37028581 -3.35282102 24.00232543 -3.33618164 25.63427734 C-3.31249998 28.12500179 -3.31564244 30.61465954 -3.32226562 33.10546875 C-3.3166906 34.69792301 -3.30958183 36.2903728 -3.30078125 37.8828125 C-3.30214836 38.99234787 -3.30214836 38.99234787 -3.30354309 40.1242981 C-3.24840478 44.16060851 -2.92873684 47.41666151 -1 51 C-0.34 51.33 0.32 51.66 1 52 C1 52.66 1 53.32 1 54 C11.89 54 22.78 54 34 54 C34 54.33 34 54.66 34 55 C26.20488173 55.79658143 18.39428768 56.19693955 10.5625 56.375 C9.71075195 56.41302734 8.85900391 56.45105469 7.98144531 56.49023438 C3.67750681 56.54791428 0.88132538 56.37014333 -2.53515625 53.6015625 C-7.31693644 48.55454886 -6.1860598 42.89522915 -6.18530273 36.31860352 C-6.1874524 34.23366721 -6.20550062 32.14929309 -6.22460938 30.06445312 C-6.32935154 7.03663145 -6.32935154 7.03663145 0 0 Z " fill="#8CE3F3" transform="translate(15,70)"/>
<path d="M0 0 C0.86787245 2.96975105 1.08259075 5.53817078 1 8.625 C0.87337758 11.94299631 0.87337758 11.94299631 2 15 C2.86625 15.1546875 2.86625 15.1546875 3.75 15.3125 C7.10225745 16.33680089 8.754964 18.38079134 11 21 C11 21.99 11 22.98 11 24 C12.093125 24.268125 13.18625 24.53625 14.3125 24.8125 C19.35114504 26.4351145 19.35114504 26.4351145 21 29 C21.6875 32.1875 21.6875 32.1875 22 35 C18.37 35 14.74 35 11 35 C13 33 13 33 15.625 32.875 C16.40875 32.91625 17.1925 32.9575 18 33 C15.34427123 30.24791826 12.61981911 27.85681399 9.5625 25.5625 C-0.50121501 17.7664313 -0.50121501 17.7664313 -2 10 C-2.31390008 5.99777401 -2.11696812 3.4400732 0 0 Z " fill="#7FE2F0" transform="translate(5,35)"/>
<path d="M0 0 C0.99 0.33 1.98 0.66 3 1 C2.45730469 1.39832031 1.91460937 1.79664062 1.35546875 2.20703125 C0.28232422 3.00173828 0.28232422 3.00173828 -0.8125 3.8125 C-1.87404297 4.59560547 -1.87404297 4.59560547 -2.95703125 5.39453125 C-4.81235632 6.85254005 -6.49070534 8.18598969 -8 10 C-8 10.99 -8 11.98 -8 13 C-0.05782419 16.05375453 8.46641594 15.58452059 16.8125 14.4375 C18.3903125 14.2209375 18.3903125 14.2209375 20 14 C21 15 21 15 21.11352539 16.85766602 C21.10828857 17.64842529 21.10305176 18.43918457 21.09765625 19.25390625 C21.09443359 20.10791016 21.09121094 20.96191406 21.08789062 21.84179688 C21.07532227 23.18854492 21.07532227 23.18854492 21.0625 24.5625 C21.05798828 25.46419922 21.05347656 26.36589844 21.04882812 27.29492188 C21.03700225 29.53001314 21.0205222 31.76497437 21 34 C20.67 34 20.34 34 20 34 C20 28.06 20 22.12 20 16 C17.69 16.66 15.38 17.32 13 18 C3.88260174 18.84767162 -3.84108327 18.30022905 -12 14 C-11.54266394 9.41059255 -10.05176472 7.67539954 -6.5625 4.75 C-5.75941406 4.06421875 -4.95632812 3.3784375 -4.12890625 2.671875 C-2 1 -2 1 0 0 Z " fill="#A6ECF6" transform="translate(44,77)"/>
<path d="M0 0 C1.06154297 -0.00773438 1.06154297 -0.00773438 2.14453125 -0.015625 C4.49416446 0.28987224 6.13731984 1.0889991 8.1875 2.25 C5.4467391 3.62038045 3.30964461 3.27117637 0.25 3.1875 C-5.9901933 3.12495909 -11.73608648 3.88615568 -17.8125 5.25 C-17.8125 5.91 -17.8125 6.57 -17.8125 7.25 C-24.97025723 9.53612778 -31.29443151 10.69032071 -38.8125 10.25 C-36.46540436 7.90290436 -35.08755353 7.62377027 -31.90234375 6.8125 C-30.41637695 6.42964844 -30.41637695 6.42964844 -28.90039062 6.0390625 C-27.86076172 5.77867187 -26.82113281 5.51828125 -25.75 5.25 C-24.73744141 4.98960937 -23.72488281 4.72921875 -22.68164062 4.4609375 C-5.06248826 -0.03756949 -5.06248826 -0.03756949 0 0 Z " fill="#8BE6F3" transform="translate(103.8125,1.75)"/>
<path d="M0 0 C2.86724686 0.57344937 3.8614515 0.8614515 6 3 C7.65 3.33 9.3 3.66 11 4 C10.01 7.96 9.02 11.92 8 16 C7.34 16 6.68 16 6 16 C3 10.25 3 10.25 3 8 C2.01 7.67 1.02 7.34 0 7 C0 4.69 0 2.38 0 0 Z " fill="#0D7FA6" transform="translate(64,32)"/>
<path d="M0 0 C1.26823485 3.65393537 0.75715321 6.49070026 0.0625 10.25 C-0.13214844 11.32765625 -0.32679687 12.4053125 -0.52734375 13.515625 C-0.68332031 14.33546875 -0.83929688 15.1553125 -1 16 C-4.86218658 15.47303499 -6.95113768 14.57444175 -9.8125 11.9375 C-10.41707031 11.38964844 -11.02164063 10.84179688 -11.64453125 10.27734375 C-12.09183594 9.85582031 -12.53914063 9.43429688 -13 9 C-9.90226756 8.15937603 -7.21667249 7.91064799 -4 8 C-3.67 6.68 -3.34 5.36 -3 4 C-3 4.66 -3 5.32 -3 6 C-2.34 6 -1.68 6 -1 6 C-0.67 4.02 -0.34 2.04 0 0 Z " fill="#83DBEA" transform="translate(73,42)"/>
<path d="M0 0 C0.33 0.99 0.66 1.98 1 3 C0.01 4.485 0.01 4.485 -1 6 C-1.31012433 8.89160512 -1.51397993 11.70542063 -1.6328125 14.60546875 C-1.67437469 15.44467361 -1.71593689 16.28387848 -1.75875854 17.14851379 C-1.88946825 19.82784464 -2.00738532 22.50756549 -2.125 25.1875 C-2.21139748 27.00459753 -2.29862695 28.8216557 -2.38671875 30.63867188 C-2.60080121 35.09204882 -2.80341295 39.54581784 -3 44 C-3.33 44 -3.66 44 -4 44 C-4.0745169 39.00125335 -4.12877437 34.00283467 -4.16479492 29.00366211 C-4.17982126 27.30536258 -4.20024823 25.60710145 -4.22631836 23.90893555 C-4.26297449 21.45872482 -4.27978789 19.00903 -4.29296875 16.55859375 C-4.30845261 15.80726669 -4.32393646 15.05593964 -4.33988953 14.28184509 C-4.3415107 9.12900802 -3.34651972 5.60066261 -1 1 C-0.67 0.67 -0.34 0.34 0 0 Z " fill="#2FC0E1" transform="translate(15,72)"/>
<path d="M0 0 C0.66 0.33 1.32 0.66 2 1 C0.45730076 5.72065967 -1.07794619 10.41664092 -3 15 C-6.87511727 14.45015228 -8.59576506 12.72444669 -11.25 9.9375 C-11.95640625 9.20402344 -12.6628125 8.47054688 -13.390625 7.71484375 C-13.92171875 7.14894531 -14.4528125 6.58304688 -15 6 C-14.67 5.34 -14.34 4.68 -14 4 C-13.51789062 4.49371094 -13.03578125 4.98742187 -12.5390625 5.49609375 C-11.90742187 6.13675781 -11.27578125 6.77742188 -10.625 7.4375 C-9.99851562 8.07558594 -9.37203125 8.71367187 -8.7265625 9.37109375 C-7.08276939 11.07882176 -7.08276939 11.07882176 -5 12 C-4.89042969 11.38511719 -4.78085937 10.77023438 -4.66796875 10.13671875 C-4.50941406 9.32847656 -4.35085937 8.52023438 -4.1875 7.6875 C-4.03667969 6.88699219 -3.88585938 6.08648437 -3.73046875 5.26171875 C-2.92427764 2.76554413 -1.97947998 1.67577894 0 0 Z " fill="#79E0EE" transform="translate(63,12)"/>
<path d="M0 0 C0.86787245 2.96975105 1.08259075 5.53817078 1 8.625 C0.87337758 11.94299631 0.87337758 11.94299631 2 15 C2.86625 15.1546875 2.86625 15.1546875 3.75 15.3125 C7.10225745 16.33680089 8.754964 18.38079134 11 21 C11 21.99 11 22.98 11 24 C9.65686601 23.35330586 8.32608822 22.68096422 7 22 C5.7315625 21.3503125 5.7315625 21.3503125 4.4375 20.6875 C0.83034441 18.19023844 -0.62202443 15.92423929 -1.47265625 11.59375 C-2.05748299 7.02269042 -2.43129924 4.06468175 0 0 Z " fill="#70D9EB" transform="translate(5,35)"/>
<path d="M0 0 C0 1.32 0 2.64 0 4 C1.32 4.33 2.64 4.66 4 5 C3.01 5.495 3.01 5.495 2 6 C0.00390625 5.2578125 0.00390625 5.2578125 -2.4375 4.125 C-8.01200329 1.76499131 -12.97689201 1.30887733 -19 1 C-18.67 4.3 -18.34 7.6 -18 11 C-20.67927341 6.98108988 -20.15601248 4.75838077 -20 0 C-14.3904532 -2.8047734 -6.00728223 -0.88996774 0 0 Z " fill="#29C8E3" transform="translate(60,45)"/>
<path d="M0 0 C0.33 0 0.66 0 1 0 C1 2.97 1 5.94 1 9 C4.3 8.67 7.6 8.34 11 8 C11 7.01 11 6.02 11 5 C14.28976808 3.90341064 15.71303767 4.20046862 19 5 C19.66 3.35 20.32 1.7 21 0 C21.33 1.32 21.66 2.64 22 4 C17.40556526 8.7585217 11.37053543 10.09355413 5 11 C2.125 10.57421875 2.125 10.57421875 0 10 C0 6.7 0 3.4 0 0 Z " fill="#27C9E7" transform="translate(93,48)"/>
<path d="M0 0 C10.55808656 0.96355353 10.55808656 0.96355353 15 2 C14.0625 4.0625 14.0625 4.0625 12 6 C7.36932876 6.25007349 3.85972383 5.57314922 0 3 C0 2.01 0 1.02 0 0 Z " fill="#0F8BB4" transform="translate(35,71)"/>
<path d="M0 0 C1.50478441 1.90078031 2.88792207 3.80604953 4.1015625 5.90625 C6.83674859 10.63547498 9.25842259 13.09039568 14 16 C14.33 16.99 14.66 17.98 15 19 C10.9811485 20.81242323 7.38889325 22.33501617 3 23 C4 21 4 21 6.375 19.875 C9 19 9 19 12 19 C12 18.34 12 17.68 12 17 C11.1646875 16.690625 11.1646875 16.690625 10.3125 16.375 C5.23735547 13.35734649 2.25024885 8.32953675 0 3 C0 2.01 0 1.02 0 0 Z " fill="#B2F2F8" transform="translate(44,54)"/>
<path d="M0 0 C0.66 0.66 1.32 1.32 2 2 C0.0625 2.5625 0.0625 2.5625 -2 3 C-2.33 2.67 -2.66 2.34 -3 2 C-8.23681246 1.56359896 -12.00246749 2.54512919 -16.91015625 4.33203125 C-19.34508502 5.1102982 -21.45894094 5.24590894 -24 5 C-24 4.34 -24 3.68 -24 3 C-16.05719256 0.32586844 -8.39380537 -0.95187484 0 0 Z " fill="#25C5E1" transform="translate(110,4)"/>
<path d="M0 0 C7.75 1.875 7.75 1.875 10 3 C12.39417312 3.09843033 14.79130905 3.12973088 17.1875 3.125 C18.48042969 3.12757812 19.77335937 3.13015625 21.10546875 3.1328125 C24.84481562 3.00529215 28.31601375 2.60205223 32 2 C32 2.66 32 3.32 32 4 C27.19894786 5.22726282 22.48301512 5.18371207 17.5625 5.1875 C16.72912109 5.19974609 15.89574219 5.21199219 15.03710938 5.22460938 C9.47138432 5.23780872 5.04470956 4.52235478 0 2 C0 1.34 0 0.68 0 0 Z " fill="#32BDDC" transform="translate(32,91)"/>
<path d="M0 0 C0.33 0.99 0.66 1.98 1 3 C0.34 3 -0.32 3 -1 3 C-1.33 5.31 -1.66 7.62 -2 10 C-2.66 10 -3.32 10 -4 10 C-3.34 13.96 -2.68 17.92 -2 22 C-2.99 21.67 -3.98 21.34 -5 21 C-6.16968953 18.66062093 -6.13364221 17.22630632 -6.125 14.625 C-6.12886719 13.46871094 -6.12886719 13.46871094 -6.1328125 12.2890625 C-6.00389788 10.0671811 -5.61383717 8.13381492 -5 6 C-4.01 6 -3.02 6 -2 6 C-1.855625 5.195625 -1.71125 4.39125 -1.5625 3.5625 C-1 1 -1 1 0 0 Z " fill="#28C0E0" transform="translate(11,29)"/>
<path d="M0 0 C0.66 0 1.32 0 2 0 C1.58443583 4.84824868 -0.37448245 6.88036862 -4 10 C-7.1125413 11.9807081 -8.09879637 12 -12 12 C-12 11.34 -12 10.68 -12 10 C-11.40445313 9.90847656 -10.80890625 9.81695312 -10.1953125 9.72265625 C-7.47437268 8.82697321 -6.60875366 7.68411796 -4.875 5.4375 C-3.3671875 3.49609375 -3.3671875 3.49609375 -2 2 C-1.34 2 -0.68 2 0 2 C0 1.34 0 0.68 0 0 Z " fill="#63DBE9" transform="translate(62,112)"/>
<path d="M0 0 C2.86724686 0.57344937 3.8614515 0.8614515 6 3 C8.57061311 3.64767793 8.57061311 3.64767793 11 4 C10.67 5.98 10.34 7.96 10 10 C8 8 6 6 4 4 C3.67 5.32 3.34 6.64 3 8 C2.01 7.67 1.02 7.34 0 7 C0 4.69 0 2.38 0 0 Z " fill="#149CC7" transform="translate(64,32)"/>
<path d="M0 0 C0.56952451 4.84095834 -1.17218422 7.17413159 -4 11 C-4.66 11.99 -5.32 12.98 -6 14 C-6.10815225 12.23050905 -6.18566083 10.45912513 -6.25 8.6875 C-6.29640625 7.70136719 -6.3428125 6.71523438 -6.390625 5.69921875 C-6 3 -6 3 -4.109375 1.14453125 C-2 0 -2 0 0 0 Z " fill="#58D9F4" transform="translate(80,28)"/>
<path d="M0 0 C6.81598387 -0.33278764 11.92122066 -0.24201565 18 3 C15.08365128 4.45817436 13.05031835 3.2966711 10.04296875 2.48046875 C7.65174453 1.91809671 5.4472448 1.8470472 3 2 C3 3.98 3 5.96 3 8 C0.37613513 4.93882432 0 4.26826873 0 0 Z " fill="#9EF1FC" transform="translate(41,46)"/>
<path d="M0 0 C3.33333333 1.66666667 6.66666667 3.33333333 10 5 C10.33 3.35 10.66 1.7 11 0 C11.33 0 11.66 0 12 0 C12 1.98 12 3.96 12 6 C10.02 6.33 8.04 6.66 6 7 C6 6.34 6 5.68 6 5 C5.38125 4.9175 4.7625 4.835 4.125 4.75 C2 4 2 4 0.75 1.9375 C0.5025 1.298125 0.255 0.65875 0 0 Z " fill="#0EC9ED" transform="translate(50,22)"/>
<path d="M0 0 C1.76923828 0.01353516 1.76923828 0.01353516 3.57421875 0.02734375 C4.47785156 0.03894531 5.38148437 0.05054688 6.3125 0.0625 C6.3125 0.3925 6.3125 0.7225 6.3125 1.0625 C0.15879161 2.885821 -5.28396678 3.2986959 -11.6875 3.0625 C-8.16050276 -0.46449724 -4.75191609 -0.04704867 0 0 Z " fill="#59D3EA" transform="translate(76.6875,8.9375)"/>
<path d="M0 0 C0.33 0 0.66 0 1 0 C1.10829314 2.89684158 1.18743954 5.78961019 1.25 8.6875 C1.28351563 9.50412109 1.31703125 10.32074219 1.3515625 11.16210938 C1.42031147 15.40735834 1.37134905 17.4321814 -1.015625 21.08203125 C-1.67046875 21.71496094 -2.3253125 22.34789063 -3 23 C-3.66 22.67 -4.32 22.34 -5 22 C-4.34 21.34 -3.68 20.68 -3 20 C-2.3574765 17.93125966 -2.3574765 17.93125966 -2 16 C-1.34 16 -0.68 16 0 16 C0 10.72 0 5.44 0 0 Z " fill="#62DBEB" transform="translate(117,32)"/>
<path d="M0 0 C0.99 0.66 1.98 1.32 3 2 C2.67 3.65 2.34 5.3 2 7 C-3.94 7.495 -3.94 7.495 -10 8 C-10 7.34 -10 6.68 -10 6 C-6.37 6 -2.74 6 1 6 C0.67 4.02 0.34 2.04 0 0 Z " fill="#21C5E6" transform="translate(26,64)"/>
<path d="M0 0 C-0.99 0.33 -1.98 0.66 -3 1 C-3 1.66 -3 2.32 -3 3 C-6.96 3 -10.92 3 -15 3 C-9.97583178 -0.34944548 -5.90048743 -0.09834146 0 0 Z " fill="#7ADEF0" transform="translate(89,6)"/>
<path d="M0 0 C0.66 0.33 1.32 0.66 2 1 C2 3.31 2 5.62 2 8 C-0.97 7.67 -3.94 7.34 -7 7 C-7 6.67 -7 6.34 -7 6 C-5.02 6 -3.04 6 -1 6 C-0.67 4.02 -0.34 2.04 0 0 Z " fill="#0DC1F0" transform="translate(67,42)"/>
<path d="M0 0 C1.32 0.66 2.64 1.32 4 2 C3.38511719 2.47050781 2.77023438 2.94101563 2.13671875 3.42578125 C1.32847656 4.04839844 0.52023438 4.67101562 -0.3125 5.3125 C-1.11300781 5.92738281 -1.91351563 6.54226562 -2.73828125 7.17578125 C-4.62701374 8.69916307 -6.33077636 10.24434407 -8 12 C-8 8 -8 8 -6.1875 5.75 C-4 4 -4 4 -1 4 C-0.67 2.68 -0.34 1.36 0 0 Z " fill="#2FB9DD" transform="translate(40,76)"/>
<path d="M0 0 C1 2 1 2 0.375 4.4375 C-1.60552022 8.1284695 -4.37326255 9.18663128 -8 11 C-6.63629701 8.00779732 -5.05091917 5.70973471 -2.875 3.25 C-2.33617187 2.63640625 -1.79734375 2.0228125 -1.2421875 1.390625 C-0.62730469 0.70226562 -0.62730469 0.70226562 0 0 Z " fill="#80E0EF" transform="translate(20,16)"/>
<path d="M0 0 C1.37562854 1.28965176 2.70766393 2.62689293 4 4 C4 4.66 4 5.32 4 6 C6.64 6.33 9.28 6.66 12 7 C12 7.33 12 7.66 12 8 C4.76190476 8.36190476 4.76190476 8.36190476 1.5 6.8125 C0 5 0 5 -0.25 2.3125 C-0.1675 1.549375 -0.085 0.78625 0 0 Z " fill="#56CCDE" transform="translate(12,118)"/>
<path d="M0 0 C8.57142857 1.85714286 8.57142857 1.85714286 12 5 C10.56163249 4.88541307 9.12429034 4.75790884 7.6875 4.625 C6.88699219 4.55539063 6.08648437 4.48578125 5.26171875 4.4140625 C3 4 3 4 0 2 C0 1.34 0 0.68 0 0 Z " fill="#26C1E8" transform="translate(32,91)"/>
<path d="M0 0 C0.90105469 0.00902344 1.80210938 0.01804687 2.73046875 0.02734375 C3.41753906 0.03894531 4.10460937 0.05054688 4.8125 0.0625 C1.85071227 1.73360042 -0.55821192 2.38932752 -3.9375 2.6875 C-4.73671875 2.76226562 -5.5359375 2.83703125 -6.359375 2.9140625 C-6.96265625 2.96304687 -7.5659375 3.01203125 -8.1875 3.0625 C-8.1875 2.4025 -8.1875 1.7425 -8.1875 1.0625 C-5.17259443 0.05753148 -3.14568308 -0.04085303 0 0 Z " fill="#13C9EA" transform="translate(94.1875,5.9375)"/>
<path d="M0 0 C2.31 0.33 4.62 0.66 7 1 C6.01 2.485 6.01 2.485 5 4 C3.35 3.67 1.7 3.34 0 3 C0 2.01 0 1.02 0 0 Z " fill="#057194" transform="translate(40,73)"/>
<path d="M0 0 C2.31 0 4.62 0 7 0 C2.375 4 2.375 4 -1 4 C-0.67 2.68 -0.34 1.36 0 0 Z " fill="#21C3E6" transform="translate(65,12)"/>
<path d="M0 0 C4.31392226 0.4793247 6.16569547 1.7457985 9 5 C8.67 5.66 8.34 6.32 8 7 C7.67 6.01 7.34 5.02 7 4 C5.824375 3.7834375 5.824375 3.7834375 4.625 3.5625 C2 3 2 3 0 2 C0 1.34 0 0.68 0 0 Z " fill="#11C7EE" transform="translate(16,57)"/>
<path d="M0 0 C5.53846154 -0.36923077 5.53846154 -0.36923077 7.875 1.5 C8.24625 1.995 8.6175 2.49 9 3 C8.67 3.66 8.34 4.32 8 5 C7.4225 4.505 6.845 4.01 6.25 3.5 C3.89599371 1.63019987 3.89599371 1.63019987 0 2 C0 1.34 0 0.68 0 0 Z " fill="#2CC6E3" transform="translate(80,28)"/>
<path d="M0 0 C5.75 2.625 5.75 2.625 8 6 C2.33846154 4.52307692 2.33846154 4.52307692 0.625 1.875 C0.41875 1.25625 0.2125 0.6375 0 0 Z " fill="#1CC4E5" transform="translate(50,22)"/>
<path d="M0 0 C1 2 1 2 0.0625 5.125 C-0.288125 6.07375 -0.63875 7.0225 -1 8 C-1.66 8 -2.32 8 -3 8 C-2.74438677 5.6568787 -2.40729228 3.32156597 -2 1 C-1.34 0.67 -0.68 0.34 0 0 Z " fill="#4FCAE9" transform="translate(23,13)"/>
<path d="M0 0 C1.485 0.99 1.485 0.99 3 2 C3.1875 5.125 3.1875 5.125 3 8 C1.5 6.8125 1.5 6.8125 0 5 C-0.1875 2.3125 -0.1875 2.3125 0 0 Z " fill="#62D1E5" transform="translate(112,5)"/>
</svg>
